STARTFONT 2.1
COMMENT
COMMENT Converted from OpenType font "I-pixel-u.ttf" by "otf2bdf 3.0".
COMMENT
FONT -FreeType-I pixel u-Medium-R-Normal--17-120-100-100-P-80-ISO10646-1
SIZE 12 100 100
FONTBOUNDINGBOX 18 20 -2 -4
STARTPROPERTIES 19
FOUNDRY "FreeType"
FAMILY_NAME "I pixel u"
WEIGHT_NAME "Medium"
SLANT "R"
SETWIDTH_NAME "Normal"
ADD_STYLE_NAME ""
PIXEL_SIZE 17
POINT_SIZE 120
RESOLUTION_X 100
RESOLUTION_Y 100
SPACING "P"
AVERAGE_WIDTH 80
CHARSET_REGISTRY "ISO10646"
CHARSET_ENCODING "1"
FONT_ASCENT 17
FONT_DESCENT 4
COPYRIGHT "Copyright rodrigosrtz 2015"
_OTF_FONTFILE "I-pixel-u.ttf"
_OTF_PSNAME "I-pixel-u"
ENDPROPERTIES
CHARS 213
STARTCHAR 0020
ENCODING 32
SWIDTH 480 0
DWIDTH 8 0
BBX 0 0 0 0
BITMAP
ENDCHAR
STARTCHAR 0021
ENCODING 33
SWIDTH 240 0
DWIDTH 4 0
BBX 2 10 0 0
BITMAP
C0
C0
C0
C0
C0
C0
00
00
C0
C0
ENDCHAR
STARTCHAR 0022
ENCODING 34
SWIDTH 480 0
DWIDTH 8 0
BBX 6 4 0 6
BITMAP
CC
CC
CC
CC
ENDCHAR
STARTCHAR 0023
ENCODING 35
SWIDTH 720 0
DWIDTH 12 0
BBX 10 10 0 0
BITMAP
3300
3300
FFC0
FFC0
3300
3300
FFC0
FFC0
3300
3300
ENDCHAR
STARTCHAR 0024
ENCODING 36
SWIDTH 480 0
DWIDTH 8 0
BBX 6 10 0 0
BITMAP
30
30
FC
FC
C0
C0
3C
3C
FC
FC
ENDCHAR
STARTCHAR 0025
ENCODING 37
SWIDTH 720 0
DWIDTH 12 0
BBX 10 10 0 0
BITMAP
C0C0
C0C0
0300
0300
0C00
0C00
3000
3000
C0C0
C0C0
ENDCHAR
STARTCHAR 0026
ENCODING 38
SWIDTH 720 0
DWIDTH 12 0
BBX 10 10 0 0
BITMAP
3C00
3C00
CCC0
CCC0
FF00
FF00
C300
C300
3CC0
3CC0
ENDCHAR
STARTCHAR 0027
ENCODING 39
SWIDTH 240 0
DWIDTH 4 0
BBX 2 4 0 6
BITMAP
C0
C0
C0
C0
ENDCHAR
STARTCHAR 0028
ENCODING 40
SWIDTH 480 0
DWIDTH 8 0
BBX 6 10 0 0
BITMAP
3C
3C
F0
F0
F0
F0
F0
F0
3C
3C
ENDCHAR
STARTCHAR 0029
ENCODING 41
SWIDTH 480 0
DWIDTH 8 0
BBX 6 10 0 0
BITMAP
F0
F0
3C
3C
3C
3C
3C
3C
F0
F0
ENDCHAR
STARTCHAR 002A
ENCODING 42
SWIDTH 480 0
DWIDTH 8 0
BBX 6 6 0 4
BITMAP
CC
CC
30
30
CC
CC
ENDCHAR
STARTCHAR 002B
ENCODING 43
SWIDTH 480 0
DWIDTH 8 0
BBX 6 6 0 0
BITMAP
30
30
FC
FC
30
30
ENDCHAR
STARTCHAR 002C
ENCODING 44
SWIDTH 240 0
DWIDTH 4 0
BBX 2 4 0 -2
BITMAP
C0
C0
C0
C0
ENDCHAR
STARTCHAR 002D
ENCODING 45
SWIDTH 480 0
DWIDTH 8 0
BBX 6 2 0 2
BITMAP
FC
FC
ENDCHAR
STARTCHAR 002E
ENCODING 46
SWIDTH 240 0
DWIDTH 4 0
BBX 2 2 0 0
BITMAP
C0
C0
ENDCHAR
STARTCHAR 002F
ENCODING 47
SWIDTH 720 0
DWIDTH 12 0
BBX 10 10 0 0
BITMAP
00C0
00C0
0300
0300
0C00
0C00
3000
3000
C000
C000
ENDCHAR
STARTCHAR 0030
ENCODING 48
SWIDTH 720 0
DWIDTH 12 0
BBX 10 10 0 0
BITMAP
3F00
3F00
C3C0
C3C0
CCC0
CCC0
F0C0
F0C0
3F00
3F00
ENDCHAR
STARTCHAR 0031
ENCODING 49
SWIDTH 480 0
DWIDTH 8 0
BBX 6 10 0 0
BITMAP
30
30
F0
F0
30
30
30
30
FC
FC
ENDCHAR
STARTCHAR 0032
ENCODING 50
SWIDTH 720 0
DWIDTH 12 0
BBX 10 10 0 0
BITMAP
3F00
3F00
C0C0
C0C0
0F00
0F00
F000
F000
FFC0
FFC0
ENDCHAR
STARTCHAR 0033
ENCODING 51
SWIDTH 720 0
DWIDTH 12 0
BBX 10 10 0 0
BITMAP
3F00
3F00
C0C0
C0C0
0FC0
0FC0
C0C0
C0C0
3F00
3F00
ENDCHAR
STARTCHAR 0034
ENCODING 52
SWIDTH 780 0
DWIDTH 13 0
BBX 11 10 0 0
BITMAP
0F00
0F00
3300
3300
C300
C300
FFE0
FFE0
0300
0300
ENDCHAR
STARTCHAR 0035
ENCODING 53
SWIDTH 720 0
DWIDTH 12 0
BBX 10 10 0 0
BITMAP
FFC0
FFC0
F000
F000
0F00
0F00
C0C0
C0C0
3F00
3F00
ENDCHAR
STARTCHAR 0036
ENCODING 54
SWIDTH 720 0
DWIDTH 12 0
BBX 10 10 0 0
BITMAP
3F00
3F00
C000
C000
FF00
FF00
C0C0
C0C0
3F00
3F00
ENDCHAR
STARTCHAR 0037
ENCODING 55
SWIDTH 480 0
DWIDTH 8 0
BBX 6 10 0 0
BITMAP
FC
FC
0C
0C
0C
0C
30
30
30
30
ENDCHAR
STARTCHAR 0038
ENCODING 56
SWIDTH 720 0
DWIDTH 12 0
BBX 10 10 0 0
BITMAP
3F00
3F00
C0C0
C0C0
3F00
3F00
C0C0
C0C0
3F00
3F00
ENDCHAR
STARTCHAR 0039
ENCODING 57
SWIDTH 720 0
DWIDTH 12 0
BBX 10 10 0 0
BITMAP
3F00
3F00
C0C0
C0C0
3FC0
3FC0
00C0
00C0
3F00
3F00
ENDCHAR
STARTCHAR 003A
ENCODING 58
SWIDTH 240 0
DWIDTH 4 0
BBX 2 6 0 0
BITMAP
C0
C0
00
00
C0
C0
ENDCHAR
STARTCHAR 003B
ENCODING 59
SWIDTH 240 0
DWIDTH 4 0
BBX 2 8 0 -2
BITMAP
C0
C0
00
00
C0
C0
C0
C0
ENDCHAR
STARTCHAR 003C
ENCODING 60
SWIDTH 480 0
DWIDTH 8 0
BBX 6 10 0 0
BITMAP
0C
0C
30
30
C0
C0
30
30
0C
0C
ENDCHAR
STARTCHAR 003D
ENCODING 61
SWIDTH 480 0
DWIDTH 8 0
BBX 6 6 0 2
BITMAP
FC
FC
00
00
FC
FC
ENDCHAR
STARTCHAR 003E
ENCODING 62
SWIDTH 480 0
DWIDTH 8 0
BBX 6 10 0 0
BITMAP
C0
C0
30
30
0C
0C
30
30
C0
C0
ENDCHAR
STARTCHAR 003F
ENCODING 63
SWIDTH 720 0
DWIDTH 12 0
BBX 10 10 0 0
BITMAP
3F00
3F00
C0C0
C0C0
0F00
0F00
0000
0000
0C00
0C00
ENDCHAR
STARTCHAR 0040
ENCODING 64
SWIDTH 720 0
DWIDTH 12 0
BBX 10 10 0 0
BITMAP
FFC0
FFC0
C0C0
C0C0
CFC0
CFC0
CCC0
CCC0
CFC0
CFC0
ENDCHAR
STARTCHAR 0041
ENCODING 65
SWIDTH 720 0
DWIDTH 12 0
BBX 10 10 0 0
BITMAP
FFC0
FFC0
F3C0
F3C0
F3C0
F3C0
FFC0
FFC0
F3C0
F3C0
ENDCHAR
STARTCHAR 0042
ENCODING 66
SWIDTH 720 0
DWIDTH 12 0
BBX 10 10 0 0
BITMAP
FF00
FF00
F3C0
F3C0
FFC0
FFC0
F3C0
F3C0
FF00
FF00
ENDCHAR
STARTCHAR 0043
ENCODING 67
SWIDTH 780 0
DWIDTH 13 0
BBX 11 10 0 0
BITMAP
FFE0
FFE0
F000
F000
F000
F000
F000
F000
FFE0
FFE0
ENDCHAR
STARTCHAR 0044
ENCODING 68
SWIDTH 720 0
DWIDTH 12 0
BBX 10 10 0 0
BITMAP
FF00
FF00
CFC0
CFC0
CFC0
CFC0
CFC0
CFC0
FF00
FF00
ENDCHAR
STARTCHAR 0045
ENCODING 69
SWIDTH 780 0
DWIDTH 13 0
BBX 11 10 0 0
BITMAP
FFE0
FFE0
F000
F000
FF80
FF80
F000
F000
FFE0
FFE0
ENDCHAR
STARTCHAR 0046
ENCODING 70
SWIDTH 780 0
DWIDTH 13 0
BBX 11 10 0 0
BITMAP
FFE0
FFE0
F000
F000
FF80
FF80
F000
F000
F000
F000
ENDCHAR
STARTCHAR 0047
ENCODING 71
SWIDTH 720 0
DWIDTH 12 0
BBX 10 10 0 0
BITMAP
FFC0
FFC0
F000
F000
F3C0
F3C0
F3C0
F3C0
FFC0
FFC0
ENDCHAR
STARTCHAR 0048
ENCODING 72
SWIDTH 720 0
DWIDTH 12 0
BBX 10 10 0 0
BITMAP
F3C0
F3C0
F3C0
F3C0
F3C0
F3C0
FFC0
FFC0
F3C0
F3C0
ENDCHAR
STARTCHAR 0049
ENCODING 73
SWIDTH 720 0
DWIDTH 12 0
BBX 10 10 0 0
BITMAP
FFC0
FFC0
3F00
3F00
3F00
3F00
3F00
3F00
FFC0
FFC0
ENDCHAR
STARTCHAR 004A
ENCODING 74
SWIDTH 720 0
DWIDTH 12 0
BBX 10 10 0 0
BITMAP
03C0
03C0
03C0
03C0
F3C0
F3C0
F3C0
F3C0
FFC0
FFC0
ENDCHAR
STARTCHAR 004B
ENCODING 75
SWIDTH 720 0
DWIDTH 12 0
BBX 10 10 0 0
BITMAP
F3C0
F3C0
F3C0
F3C0
FF00
FF00
FFC0
FFC0
F3C0
F3C0
ENDCHAR
STARTCHAR 004C
ENCODING 76
SWIDTH 780 0
DWIDTH 13 0
BBX 11 10 0 0
BITMAP
FC00
FC00
FC00
FC00
FC00
FC00
FC00
FC00
FFE0
FFE0
ENDCHAR
STARTCHAR 004D
ENCODING 77
SWIDTH 720 0
DWIDTH 12 0
BBX 10 10 0 0
BITMAP
FFC0
FFC0
FFC0
FFC0
CCC0
CCC0
CCC0
CCC0
C0C0
C0C0
ENDCHAR
STARTCHAR 004E
ENCODING 78
SWIDTH 720 0
DWIDTH 12 0
BBX 10 10 0 0
BITMAP
FCC0
FCC0
FCC0
FCC0
CCC0
CCC0
CFC0
CFC0
CFC0
CFC0
ENDCHAR
STARTCHAR 004F
ENCODING 79
SWIDTH 720 0
DWIDTH 12 0
BBX 10 10 0 0
BITMAP
FFC0
FFC0
F3C0
F3C0
F3C0
F3C0
F3C0
F3C0
FFC0
FFC0
ENDCHAR
STARTCHAR 0050
ENCODING 80
SWIDTH 720 0
DWIDTH 12 0
BBX 10 10 0 0
BITMAP
FFC0
FFC0
F3C0
F3C0
F3C0
F3C0
FFC0
FFC0
F000
F000
ENDCHAR
STARTCHAR 0051
ENCODING 81
SWIDTH 720 0
DWIDTH 12 0
BBX 10 10 0 0
BITMAP
FFC0
FFC0
F0C0
F0C0
F0C0
F0C0
F3C0
F3C0
FFC0
FFC0
ENDCHAR
STARTCHAR 0052
ENCODING 82
SWIDTH 720 0
DWIDTH 12 0
BBX 10 10 0 0
BITMAP
FFC0
FFC0
F3C0
F3C0
F3C0
F3C0
FF00
FF00
F3C0
F3C0
ENDCHAR
STARTCHAR 0053
ENCODING 83
SWIDTH 720 0
DWIDTH 12 0
BBX 10 10 0 0
BITMAP
FFC0
FFC0
F000
F000
FFC0
FFC0
03C0
03C0
FFC0
FFC0
ENDCHAR
STARTCHAR 0054
ENCODING 84
SWIDTH 720 0
DWIDTH 12 0
BBX 10 10 0 0
BITMAP
FFC0
FFC0
3F00
3F00
3F00
3F00
3F00
3F00
3F00
3F00
ENDCHAR
STARTCHAR 0055
ENCODING 85
SWIDTH 720 0
DWIDTH 12 0
BBX 10 10 0 0
BITMAP
F3C0
F3C0
F3C0
F3C0
F3C0
F3C0
F3C0
F3C0
FFC0
FFC0
ENDCHAR
STARTCHAR 0056
ENCODING 86
SWIDTH 720 0
DWIDTH 12 0
BBX 10 10 0 0
BITMAP
F3C0
F3C0
F3C0
F3C0
F3C0
F3C0
3F00
3F00
0C00
0C00
ENDCHAR
STARTCHAR 0057
ENCODING 87
SWIDTH 720 0
DWIDTH 12 0
BBX 10 10 0 0
BITMAP
C0C0
C0C0
CCC0
CCC0
CCC0
CCC0
FFC0
FFC0
FFC0
FFC0
ENDCHAR
STARTCHAR 0058
ENCODING 88
SWIDTH 720 0
DWIDTH 12 0
BBX 10 10 0 0
BITMAP
F3C0
F3C0
FFC0
FFC0
3F00
3F00
FFC0
FFC0
F3C0
F3C0
ENDCHAR
STARTCHAR 0059
ENCODING 89
SWIDTH 720 0
DWIDTH 12 0
BBX 10 10 0 0
BITMAP
F3C0
F3C0
F3C0
F3C0
FFC0
FFC0
3F00
3F00
3F00
3F00
ENDCHAR
STARTCHAR 005A
ENCODING 90
SWIDTH 720 0
DWIDTH 12 0
BBX 10 10 0 0
BITMAP
FFC0
FFC0
03C0
03C0
FFC0
FFC0
F000
F000
FFC0
FFC0
ENDCHAR
STARTCHAR 005B
ENCODING 91
SWIDTH 540 0
DWIDTH 9 0
BBX 7 10 0 0
BITMAP
FE
FE
F0
F0
F0
F0
F0
F0
FE
FE
ENDCHAR
STARTCHAR 005C
ENCODING 92
SWIDTH 720 0
DWIDTH 12 0
BBX 10 10 0 0
BITMAP
C000
C000
3000
3000
0C00
0C00
0300
0300
00C0
00C0
ENDCHAR
STARTCHAR 005D
ENCODING 93
SWIDTH 480 0
DWIDTH 8 0
BBX 6 10 0 0
BITMAP
FC
FC
3C
3C
3C
3C
3C
3C
FC
FC
ENDCHAR
STARTCHAR 005E
ENCODING 94
SWIDTH 480 0
DWIDTH 8 0
BBX 6 4 0 6
BITMAP
30
30
CC
CC
ENDCHAR
STARTCHAR 005F
ENCODING 95
SWIDTH 720 0
DWIDTH 12 0
BBX 10 2 0 0
BITMAP
FFC0
FFC0
ENDCHAR
STARTCHAR 0060
ENCODING 96
SWIDTH 360 0
DWIDTH 6 0
BBX 4 4 0 6
BITMAP
C0
C0
30
30
ENDCHAR
STARTCHAR 0061
ENCODING 97
SWIDTH 600 0
DWIDTH 10 0
BBX 8 6 0 0
BITMAP
FC
FC
CC
CC
F3
F3
ENDCHAR
STARTCHAR 0062
ENCODING 98
SWIDTH 480 0
DWIDTH 8 0
BBX 6 10 0 0
BITMAP
C0
C0
C0
C0
FC
FC
CC
CC
FC
FC
ENDCHAR
STARTCHAR 0063
ENCODING 99
SWIDTH 540 0
DWIDTH 9 0
BBX 7 6 0 0
BITMAP
FE
FE
C0
C0
FE
FE
ENDCHAR
STARTCHAR 0064
ENCODING 100
SWIDTH 480 0
DWIDTH 8 0
BBX 6 10 0 0
BITMAP
0C
0C
0C
0C
FC
FC
CC
CC
FC
FC
ENDCHAR
STARTCHAR 0065
ENCODING 101
SWIDTH 480 0
DWIDTH 8 0
BBX 6 6 0 0
BITMAP
FC
FC
CC
CC
F0
F0
ENDCHAR
STARTCHAR 0066
ENCODING 102
SWIDTH 360 0
DWIDTH 6 0
BBX 4 10 0 -2
BITMAP
F0
F0
C0
C0
F0
F0
C0
C0
C0
C0
ENDCHAR
STARTCHAR 0067
ENCODING 103
SWIDTH 480 0
DWIDTH 8 0
BBX 6 10 0 -4
BITMAP
FC
FC
CC
CC
FC
FC
0C
0C
F0
F0
ENDCHAR
STARTCHAR 0068
ENCODING 104
SWIDTH 480 0
DWIDTH 8 0
BBX 6 10 0 0
BITMAP
C0
C0
C0
C0
FC
FC
CC
CC
CC
CC
ENDCHAR
STARTCHAR 0069
ENCODING 105
SWIDTH 240 0
DWIDTH 4 0
BBX 2 8 0 0
BITMAP
C0
C0
00
00
C0
C0
C0
C0
ENDCHAR
STARTCHAR 006A
ENCODING 106
SWIDTH 240 0
DWIDTH 4 0
BBX 4 12 -2 -4
BITMAP
30
30
00
00
30
30
30
30
30
30
F0
F0
ENDCHAR
STARTCHAR 006B
ENCODING 107
SWIDTH 480 0
DWIDTH 8 0
BBX 6 10 0 0
BITMAP
C0
C0
C0
C0
CC
CC
F0
F0
CC
CC
ENDCHAR
STARTCHAR 006C
ENCODING 108
SWIDTH 360 0
DWIDTH 6 0
BBX 4 10 0 0
BITMAP
C0
C0
C0
C0
C0
C0
C0
C0
F0
F0
ENDCHAR
STARTCHAR 006D
ENCODING 109
SWIDTH 720 0
DWIDTH 12 0
BBX 10 6 0 0
BITMAP
F3C0
F3C0
CCC0
CCC0
CCC0
CCC0
ENDCHAR
STARTCHAR 006E
ENCODING 110
SWIDTH 480 0
DWIDTH 8 0
BBX 6 6 0 0
BITMAP
FC
FC
CC
CC
CC
CC
ENDCHAR
STARTCHAR 006F
ENCODING 111
SWIDTH 480 0
DWIDTH 8 0
BBX 6 6 0 0
BITMAP
FC
FC
CC
CC
FC
FC
ENDCHAR
STARTCHAR 0070
ENCODING 112
SWIDTH 480 0
DWIDTH 8 0
BBX 6 10 0 -4
BITMAP
FC
FC
CC
CC
FC
FC
C0
C0
C0
C0
ENDCHAR
STARTCHAR 0071
ENCODING 113
SWIDTH 480 0
DWIDTH 8 0
BBX 6 10 0 -4
BITMAP
FC
FC
CC
CC
FC
FC
0C
0C
0C
0C
ENDCHAR
STARTCHAR 0072
ENCODING 114
SWIDTH 360 0
DWIDTH 6 0
BBX 4 6 0 0
BITMAP
F0
F0
C0
C0
C0
C0
ENDCHAR
STARTCHAR 0073
ENCODING 115
SWIDTH 360 0
DWIDTH 6 0
BBX 4 8 0 -2
BITMAP
F0
F0
C0
C0
30
30
F0
F0
ENDCHAR
STARTCHAR 0074
ENCODING 116
SWIDTH 360 0
DWIDTH 6 0
BBX 4 10 0 0
BITMAP
C0
C0
F0
F0
C0
C0
C0
C0
C0
C0
ENDCHAR
STARTCHAR 0075
ENCODING 117
SWIDTH 480 0
DWIDTH 8 0
BBX 6 6 0 0
BITMAP
CC
CC
CC
CC
FC
FC
ENDCHAR
STARTCHAR 0076
ENCODING 118
SWIDTH 480 0
DWIDTH 8 0
BBX 6 6 0 0
BITMAP
CC
CC
CC
CC
30
30
ENDCHAR
STARTCHAR 0077
ENCODING 119
SWIDTH 720 0
DWIDTH 12 0
BBX 10 6 0 0
BITMAP
C0C0
C0C0
CCC0
CCC0
3300
3300
ENDCHAR
STARTCHAR 0078
ENCODING 120
SWIDTH 480 0
DWIDTH 8 0
BBX 6 6 0 0
BITMAP
CC
CC
30
30
CC
CC
ENDCHAR
STARTCHAR 0079
ENCODING 121
SWIDTH 480 0
DWIDTH 8 0
BBX 6 10 0 -4
BITMAP
CC
CC
CC
CC
FC
FC
0C
0C
F0
F0
ENDCHAR
STARTCHAR 007A
ENCODING 122
SWIDTH 480 0
DWIDTH 8 0
BBX 6 8 0 -2
BITMAP
FC
FC
0C
0C
30
30
FC
FC
ENDCHAR
STARTCHAR 007B
ENCODING 123
SWIDTH 540 0
DWIDTH 9 0
BBX 7 10 0 0
BITMAP
3E
3E
30
30
C0
C0
30
30
3E
3E
ENDCHAR
STARTCHAR 007C
ENCODING 124
SWIDTH 240 0
DWIDTH 4 0
BBX 2 10 0 0
BITMAP
C0
C0
C0
C0
C0
C0
C0
C0
C0
C0
ENDCHAR
STARTCHAR 007D
ENCODING 125
SWIDTH 480 0
DWIDTH 8 0
BBX 6 10 0 0
BITMAP
F0
F0
30
30
0C
0C
30
30
F0
F0
ENDCHAR
STARTCHAR 007E
ENCODING 126
SWIDTH 600 0
DWIDTH 10 0
BBX 8 4 0 2
BITMAP
F3
F3
CF
CF
ENDCHAR
STARTCHAR 00A1
ENCODING 161
SWIDTH 240 0
DWIDTH 4 0
BBX 2 10 0 0
BITMAP
C0
C0
00
00
C0
C0
C0
C0
C0
C0
ENDCHAR
STARTCHAR 00A2
ENCODING 162
SWIDTH 540 0
DWIDTH 9 0
BBX 7 10 0 0
BITMAP
30
30
FE
FE
C0
C0
FE
FE
30
30
ENDCHAR
STARTCHAR 00A3
ENCODING 163
SWIDTH 720 0
DWIDTH 12 0
BBX 10 10 0 0
BITMAP
0F00
0F00
30C0
30C0
FC00
FC00
3000
3000
FFC0
FFC0
ENDCHAR
STARTCHAR 00A4
ENCODING 164
SWIDTH 720 0
DWIDTH 12 0
BBX 10 10 0 0
BITMAP
C0C0
C0C0
3F00
3F00
3300
3300
3F00
3F00
C0C0
C0C0
ENDCHAR
STARTCHAR 00A5
ENCODING 165
SWIDTH 480 0
DWIDTH 8 0
BBX 6 10 0 0
BITMAP
CC
CC
CC
CC
30
30
FC
FC
30
30
ENDCHAR
STARTCHAR 00A6
ENCODING 166
SWIDTH 240 0
DWIDTH 4 0
BBX 2 10 0 0
BITMAP
C0
C0
C0
C0
00
00
C0
C0
C0
C0
ENDCHAR
STARTCHAR 00A7
ENCODING 167
SWIDTH 480 0
DWIDTH 8 0
BBX 6 10 0 0
BITMAP
3C
3C
F0
F0
CC
CC
3C
3C
F0
F0
ENDCHAR
STARTCHAR 00A8
ENCODING 168
SWIDTH 480 0
DWIDTH 8 0
BBX 6 2 0 8
BITMAP
CC
CC
ENDCHAR
STARTCHAR 00A9
ENCODING 169
SWIDTH 480 0
DWIDTH 8 0
BBX 6 6 0 6
BITMAP
3C
3C
C0
C0
3C
3C
ENDCHAR
STARTCHAR 00AA
ENCODING 170
SWIDTH 360 0
DWIDTH 6 0
BBX 4 6 0 6
BITMAP
C0
C0
30
30
F0
F0
ENDCHAR
STARTCHAR 00AB
ENCODING 171
SWIDTH 840 0
DWIDTH 14 0
BBX 12 10 0 0
BITMAP
0C30
0C30
30C0
30C0
C300
C300
30C0
30C0
0C30
0C30
ENDCHAR
STARTCHAR 00AC
ENCODING 172
SWIDTH 480 0
DWIDTH 8 0
BBX 6 4 0 2
BITMAP
FC
FC
0C
0C
ENDCHAR
STARTCHAR 00AD
ENCODING 173
SWIDTH 240 0
DWIDTH 4 0
BBX 2 2 0 4
BITMAP
C0
C0
ENDCHAR
STARTCHAR 00AE
ENCODING 174
SWIDTH 480 0
DWIDTH 8 0
BBX 6 6 0 6
BITMAP
F0
F0
F0
F0
CC
CC
ENDCHAR
STARTCHAR 00AF
ENCODING 175
SWIDTH 720 0
DWIDTH 12 0
BBX 10 2 0 8
BITMAP
FFC0
FFC0
ENDCHAR
STARTCHAR 00B0
ENCODING 176
SWIDTH 480 0
DWIDTH 8 0
BBX 6 6 0 6
BITMAP
30
30
CC
CC
30
30
ENDCHAR
STARTCHAR 00B1
ENCODING 177
SWIDTH 480 0
DWIDTH 8 0
BBX 6 8 0 2
BITMAP
30
30
FC
FC
30
30
FC
FC
ENDCHAR
STARTCHAR 00B2
ENCODING 178
SWIDTH 480 0
DWIDTH 8 0
BBX 6 9 0 6
BITMAP
FC
FC
0C
0C
FC
F0
F0
FC
FC
ENDCHAR
STARTCHAR 00B3
ENCODING 179
SWIDTH 480 0
DWIDTH 8 0
BBX 6 9 0 6
BITMAP
FC
FC
0C
0C
3C
3C
3C
FC
FC
ENDCHAR
STARTCHAR 00B4
ENCODING 180
SWIDTH 480 0
DWIDTH 8 0
BBX 4 2 2 8
BITMAP
F0
F0
ENDCHAR
STARTCHAR 00B5
ENCODING 181
SWIDTH 480 0
DWIDTH 8 0
BBX 6 10 0 -4
BITMAP
CC
CC
CC
CC
FC
FC
CC
CC
C0
C0
ENDCHAR
STARTCHAR 00B6
ENCODING 182
SWIDTH 780 0
DWIDTH 13 0
BBX 11 10 0 0
BITMAP
F3E0
F3E0
F300
F300
F300
F300
3300
3300
3300
3300
ENDCHAR
STARTCHAR 00B7
ENCODING 183
SWIDTH 360 0
DWIDTH 6 0
BBX 2 2 2 2
BITMAP
C0
C0
ENDCHAR
STARTCHAR 00B8
ENCODING 184
SWIDTH 360 0
DWIDTH 6 0
BBX 2 4 2 -4
BITMAP
C0
C0
C0
C0
ENDCHAR
STARTCHAR 00B9
ENCODING 185
SWIDTH 480 0
DWIDTH 8 0
BBX 6 9 0 6
BITMAP
30
30
30
F0
F0
30
30
FC
FC
ENDCHAR
STARTCHAR 00BA
ENCODING 186
SWIDTH 480 0
DWIDTH 8 0
BBX 6 6 0 6
BITMAP
FC
FC
CC
CC
FC
FC
ENDCHAR
STARTCHAR 00BB
ENCODING 187
SWIDTH 840 0
DWIDTH 14 0
BBX 12 10 0 0
BITMAP
C300
C300
30C0
30C0
0C30
0C30
30C0
30C0
C300
C300
ENDCHAR
STARTCHAR 00BC
ENCODING 188
SWIDTH 600 0
DWIDTH 10 0
BBX 8 10 0 4
BITMAP
C3
C3
CC
CC
33
33
CF
CF
03
03
ENDCHAR
STARTCHAR 00BD
ENCODING 189
SWIDTH 720 0
DWIDTH 12 0
BBX 10 12 0 2
BITMAP
C300
C300
CC00
CC00
33C0
33C0
C0C0
C0C0
0300
0300
03C0
03C0
ENDCHAR
STARTCHAR 00BE
ENCODING 190
SWIDTH 720 0
DWIDTH 12 0
BBX 10 12 0 4
BITMAP
F000
F000
30C0
30C0
F300
F300
0CC0
0CC0
33C0
33C0
C0C0
C0C0
ENDCHAR
STARTCHAR 00BF
ENCODING 191
SWIDTH 720 0
DWIDTH 12 0
BBX 10 10 0 0
BITMAP
0C00
0C00
0000
0000
3C00
3C00
C0C0
C0C0
3F00
3F00
ENDCHAR
STARTCHAR 00C0
ENCODING 192
SWIDTH 720 0
DWIDTH 12 0
BBX 10 14 0 0
BITMAP
F000
F000
0000
0000
FFC0
FFC0
F3C0
F3C0
F3C0
F3C0
FFC0
FFC0
F3C0
F3C0
ENDCHAR
STARTCHAR 00C1
ENCODING 193
SWIDTH 720 0
DWIDTH 12 0
BBX 10 14 0 0
BITMAP
03C0
03C0
0000
0000
FFC0
FFC0
F3C0
F3C0
F3C0
F3C0
FFC0
FFC0
F3C0
F3C0
ENDCHAR
STARTCHAR 00C2
ENCODING 194
SWIDTH 720 0
DWIDTH 12 0
BBX 10 16 0 0
BITMAP
0C00
0C00
3300
3300
0000
0000
FFC0
FFC0
F3C0
F3C0
F3C0
F3C0
FFC0
FFC0
F3C0
F3C0
ENDCHAR
STARTCHAR 00C3
ENCODING 195
SWIDTH 720 0
DWIDTH 12 0
BBX 10 16 0 0
BITMAP
3CC0
3CC0
33C0
33C0
0000
0000
FFC0
FFC0
F3C0
F3C0
F3C0
F3C0
FFC0
FFC0
F3C0
F3C0
ENDCHAR
STARTCHAR 00C4
ENCODING 196
SWIDTH 720 0
DWIDTH 12 0
BBX 10 14 0 0
BITMAP
3300
3300
0000
0000
FFC0
FFC0
F3C0
F3C0
F3C0
F3C0
FFC0
FFC0
F3C0
F3C0
ENDCHAR
STARTCHAR 00C5
ENCODING 197
SWIDTH 720 0
DWIDTH 12 0
BBX 10 16 0 0
BITMAP
0C00
0C00
3300
3300
0C00
0C00
FFC0
FFC0
F3C0
F3C0
F3C0
F3C0
FFC0
FFC0
F3C0
F3C0
ENDCHAR
STARTCHAR 00C6
ENCODING 198
SWIDTH 1080 0
DWIDTH 18 0
BBX 16 10 0 0
BITMAP
FFFF
FFFF
F3C0
F3C0
F3FC
F3FC
FFC0
FFC0
F3FF
F3FF
ENDCHAR
STARTCHAR 00C7
ENCODING 199
SWIDTH 780 0
DWIDTH 13 0
BBX 11 12 0 -2
BITMAP
FFE0
FFE0
F000
F000
F000
F000
F000
F000
FFE0
FFE0
0C00
0C00
ENDCHAR
STARTCHAR 00C8
ENCODING 200
SWIDTH 780 0
DWIDTH 13 0
BBX 11 14 0 0
BITMAP
F000
F000
0000
0000
FFE0
FFE0
F000
F000
FF80
FF80
F000
F000
FFE0
FFE0
ENDCHAR
STARTCHAR 00C9
ENCODING 201
SWIDTH 720 0
DWIDTH 12 0
BBX 10 14 0 0
BITMAP
03C0
03C0
0000
0000
FFC0
FFC0
F000
F000
FF00
FF00
F000
F000
FFC0
FFC0
ENDCHAR
STARTCHAR 00CA
ENCODING 202
SWIDTH 780 0
DWIDTH 13 0
BBX 11 16 0 0
BITMAP
0C00
0C00
3300
3300
0000
0000
FFE0
FFE0
F000
F000
FF00
FF00
F000
F000
FFE0
FFE0
ENDCHAR
STARTCHAR 00CB
ENCODING 203
SWIDTH 780 0
DWIDTH 13 0
BBX 11 14 0 0
BITMAP
3300
3300
0000
0000
FFE0
FFE0
F000
F000
FF00
FF00
F000
F000
FFE0
FFE0
ENDCHAR
STARTCHAR 00CC
ENCODING 204
SWIDTH 720 0
DWIDTH 12 0
BBX 10 14 0 0
BITMAP
F000
F000
0000
0000
FFC0
FFC0
3F00
3F00
3F00
3F00
3F00
3F00
FFC0
FFC0
ENDCHAR
STARTCHAR 00CD
ENCODING 205
SWIDTH 720 0
DWIDTH 12 0
BBX 10 14 0 0
BITMAP
03C0
03C0
0000
0000
FFC0
FFC0
3F00
3F00
3F00
3F00
3F00
3F00
FFC0
FFC0
ENDCHAR
STARTCHAR 00CE
ENCODING 206
SWIDTH 720 0
DWIDTH 12 0
BBX 10 16 0 0
BITMAP
0C00
0C00
3300
3300
0000
0000
FFC0
FFC0
3F00
3F00
3F00
3F00
3F00
3F00
FFC0
FFC0
ENDCHAR
STARTCHAR 00CF
ENCODING 207
SWIDTH 720 0
DWIDTH 12 0
BBX 10 14 0 0
BITMAP
3300
3300
0000
0000
FFC0
FFC0
3F00
3F00
3F00
3F00
3F00
3F00
FFC0
FFC0
ENDCHAR
STARTCHAR 00D0
ENCODING 208
SWIDTH 720 0
DWIDTH 12 0
BBX 10 10 0 0
BITMAP
FF00
FF00
C3C0
C3C0
F3C0
F3C0
C3C0
C3C0
FF00
FF00
ENDCHAR
STARTCHAR 00D1
ENCODING 209
SWIDTH 720 0
DWIDTH 12 0
BBX 10 16 0 0
BITMAP
3CC0
3CC0
33C0
33C0
0000
0000
FCC0
FCC0
FCC0
FCC0
CCC0
CCC0
CFC0
CFC0
CFC0
CFC0
ENDCHAR
STARTCHAR 00D2
ENCODING 210
SWIDTH 720 0
DWIDTH 12 0
BBX 10 14 0 0
BITMAP
F000
F000
0000
0000
FFC0
FFC0
F3C0
F3C0
F3C0
F3C0
F3C0
F3C0
FFC0
FFC0
ENDCHAR
STARTCHAR 00D3
ENCODING 211
SWIDTH 720 0
DWIDTH 12 0
BBX 10 14 0 0
BITMAP
03C0
03C0
0000
0000
FFC0
FFC0
F3C0
F3C0
F3C0
F3C0
F3C0
F3C0
FFC0
FFC0
ENDCHAR
STARTCHAR 00D4
ENCODING 212
SWIDTH 720 0
DWIDTH 12 0
BBX 10 16 0 0
BITMAP
0C00
0C00
3300
3300
0000
0000
FFC0
FFC0
F3C0
F3C0
F3C0
F3C0
F3C0
F3C0
FFC0
FFC0
ENDCHAR
STARTCHAR 00D5
ENCODING 213
SWIDTH 720 0
DWIDTH 12 0
BBX 10 16 0 0
BITMAP
3CC0
3CC0
33C0
33C0
0000
0000
FFC0
FFC0
F3C0
F3C0
F3C0
F3C0
F3C0
F3C0
FFC0
FFC0
ENDCHAR
STARTCHAR 00D6
ENCODING 214
SWIDTH 720 0
DWIDTH 12 0
BBX 10 14 0 0
BITMAP
3300
3300
0000
0000
FFC0
FFC0
F3C0
F3C0
F3C0
F3C0
F3C0
F3C0
FFC0
FFC0
ENDCHAR
STARTCHAR 00D7
ENCODING 215
SWIDTH 480 0
DWIDTH 8 0
BBX 6 6 0 4
BITMAP
CC
CC
30
30
CC
CC
ENDCHAR
STARTCHAR 00D8
ENCODING 216
SWIDTH 900 0
DWIDTH 15 0
BBX 15 14 -2 -2
BITMAP
0006
0006
3FF0
3FF0
30F0
30F0
3330
3330
3C30
3C30
3FF0
3FF0
C000
C000
ENDCHAR
STARTCHAR 00D9
ENCODING 217
SWIDTH 720 0
DWIDTH 12 0
BBX 10 14 0 0
BITMAP
F000
F000
0000
0000
F3C0
F3C0
F3C0
F3C0
F3C0
F3C0
F3C0
F3C0
FFC0
FFC0
ENDCHAR
STARTCHAR 00DA
ENCODING 218
SWIDTH 720 0
DWIDTH 12 0
BBX 10 14 0 0
BITMAP
03C0
03C0
0000
0000
F3C0
F3C0
F3C0
F3C0
F3C0
F3C0
F3C0
F3C0
FFC0
FFC0
ENDCHAR
STARTCHAR 00DB
ENCODING 219
SWIDTH 720 0
DWIDTH 12 0
BBX 10 16 0 0
BITMAP
0C00
0C00
3300
3300
0000
0000
F3C0
F3C0
F3C0
F3C0
F3C0
F3C0
F3C0
F3C0
FFC0
FFC0
ENDCHAR
STARTCHAR 00DC
ENCODING 220
SWIDTH 720 0
DWIDTH 12 0
BBX 10 14 0 0
BITMAP
3300
3300
0000
0000
F3C0
F3C0
F3C0
F3C0
F3C0
F3C0
F3C0
F3C0
FFC0
FFC0
ENDCHAR
STARTCHAR 00DD
ENCODING 221
SWIDTH 720 0
DWIDTH 12 0
BBX 10 14 0 0
BITMAP
03C0
03C0
0000
0000
F3C0
F3C0
F3C0
F3C0
F3C0
F3C0
3F00
3F00
3F00
3F00
ENDCHAR
STARTCHAR 00DE
ENCODING 222
SWIDTH 600 0
DWIDTH 10 0
BBX 8 10 0 0
BITMAP
F0
F0
FF
FF
F3
F3
FF
FF
F0
F0
ENDCHAR
STARTCHAR 00DF
ENCODING 223
SWIDTH 480 0
DWIDTH 8 0
BBX 6 12 0 -4
BITMAP
30
30
CC
CC
F0
F0
CC
CC
F0
F0
C0
C0
ENDCHAR
STARTCHAR 00E0
ENCODING 224
SWIDTH 600 0
DWIDTH 10 0
BBX 8 10 0 0
BITMAP
F0
F0
00
00
FC
FC
CC
CC
F3
F3
ENDCHAR
STARTCHAR 00E1
ENCODING 225
SWIDTH 600 0
DWIDTH 10 0
BBX 8 10 0 0
BITMAP
3C
3C
00
00
FC
FC
CC
CC
F3
F3
ENDCHAR
STARTCHAR 00E2
ENCODING 226
SWIDTH 600 0
DWIDTH 10 0
BBX 8 12 0 0
BITMAP
30
30
CC
CC
00
00
FC
FC
CC
CC
F3
F3
ENDCHAR
STARTCHAR 00E3
ENCODING 227
SWIDTH 600 0
DWIDTH 10 0
BBX 8 12 0 0
BITMAP
F3
F3
CF
CF
00
00
FC
FC
CC
CC
F3
F3
ENDCHAR
STARTCHAR 00E4
ENCODING 228
SWIDTH 600 0
DWIDTH 10 0
BBX 8 10 0 0
BITMAP
CC
CC
00
00
FC
FC
CC
CC
F3
F3
ENDCHAR
STARTCHAR 00E5
ENCODING 229
SWIDTH 600 0
DWIDTH 10 0
BBX 8 12 0 0
BITMAP
30
30
CC
CC
30
30
FC
FC
CC
CC
F3
F3
ENDCHAR
STARTCHAR 00E6
ENCODING 230
SWIDTH 840 0
DWIDTH 14 0
BBX 12 8 0 -2
BITMAP
FFF0
FFF0
CF30
CF30
FFC0
FFC0
0C00
0C00
ENDCHAR
STARTCHAR 00E7
ENCODING 231
SWIDTH 540 0
DWIDTH 9 0
BBX 7 8 0 -2
BITMAP
FE
FE
C0
C0
FE
FE
30
30
ENDCHAR
STARTCHAR 00E8
ENCODING 232
SWIDTH 480 0
DWIDTH 8 0
BBX 6 10 0 0
BITMAP
F0
F0
00
00
FC
FC
CC
CC
F0
F0
ENDCHAR
STARTCHAR 00E9
ENCODING 233
SWIDTH 480 0
DWIDTH 8 0
BBX 6 10 0 0
BITMAP
3C
3C
00
00
FC
FC
CC
CC
F0
F0
ENDCHAR
STARTCHAR 00EA
ENCODING 234
SWIDTH 480 0
DWIDTH 8 0
BBX 6 12 0 0
BITMAP
30
30
CC
CC
00
00
FC
FC
CC
CC
F0
F0
ENDCHAR
STARTCHAR 00EB
ENCODING 235
SWIDTH 480 0
DWIDTH 8 0
BBX 6 10 0 0
BITMAP
CC
CC
00
00
FC
FC
CC
CC
F0
F0
ENDCHAR
STARTCHAR 00EC
ENCODING 236
SWIDTH 240 0
DWIDTH 4 0
BBX 4 8 -2 0
BITMAP
F0
F0
00
00
30
30
30
30
ENDCHAR
STARTCHAR 00ED
ENCODING 237
SWIDTH 360 0
DWIDTH 6 0
BBX 4 8 0 0
BITMAP
F0
F0
00
00
C0
C0
C0
C0
ENDCHAR
STARTCHAR 00EE
ENCODING 238
SWIDTH 360 0
DWIDTH 6 0
BBX 6 10 -2 0
BITMAP
30
30
CC
CC
00
00
30
30
30
30
ENDCHAR
STARTCHAR 00EF
ENCODING 239
SWIDTH 360 0
DWIDTH 6 0
BBX 6 8 -2 0
BITMAP
CC
CC
00
00
30
30
30
30
ENDCHAR
STARTCHAR 00F0
ENCODING 240
SWIDTH 600 0
DWIDTH 10 0
BBX 8 12 0 0
BITMAP
F3
F3
0C
0C
03
03
3F
3F
C3
C3
FC
FC
ENDCHAR
STARTCHAR 00F1
ENCODING 241
SWIDTH 600 0
DWIDTH 10 0
BBX 8 12 0 0
BITMAP
F3
F3
CF
CF
00
00
FC
FC
CC
CC
CC
CC
ENDCHAR
STARTCHAR 00F2
ENCODING 242
SWIDTH 480 0
DWIDTH 8 0
BBX 6 10 0 0
BITMAP
F0
F0
00
00
FC
FC
CC
CC
FC
FC
ENDCHAR
STARTCHAR 00F3
ENCODING 243
SWIDTH 480 0
DWIDTH 8 0
BBX 6 10 0 0
BITMAP
3C
3C
00
00
FC
FC
CC
CC
FC
FC
ENDCHAR
STARTCHAR 00F4
ENCODING 244
SWIDTH 480 0
DWIDTH 8 0
BBX 6 12 0 0
BITMAP
30
30
CC
CC
00
00
FC
FC
CC
CC
FC
FC
ENDCHAR
STARTCHAR 00F5
ENCODING 245
SWIDTH 600 0
DWIDTH 10 0
BBX 8 12 0 0
BITMAP
F3
F3
CF
CF
00
00
FC
FC
CC
CC
FC
FC
ENDCHAR
STARTCHAR 00F6
ENCODING 246
SWIDTH 480 0
DWIDTH 8 0
BBX 6 10 0 0
BITMAP
CC
CC
00
00
FC
FC
CC
CC
FC
FC
ENDCHAR
STARTCHAR 00F7
ENCODING 247
SWIDTH 240 0
DWIDTH 4 0
BBX 2 6 0 2
BITMAP
C0
C0
00
00
C0
C0
ENDCHAR
STARTCHAR 00F8
ENCODING 248
SWIDTH 480 0
DWIDTH 8 0
BBX 6 6 0 0
BITMAP
FC
FC
FC
FC
FC
FC
ENDCHAR
STARTCHAR 00F9
ENCODING 249
SWIDTH 480 0
DWIDTH 8 0
BBX 6 10 0 0
BITMAP
F0
F0
00
00
CC
CC
CC
CC
FC
FC
ENDCHAR
STARTCHAR 00FA
ENCODING 250
SWIDTH 480 0
DWIDTH 8 0
BBX 6 10 0 0
BITMAP
3C
3C
00
00
CC
CC
CC
CC
FC
FC
ENDCHAR
STARTCHAR 00FB
ENCODING 251
SWIDTH 480 0
DWIDTH 8 0
BBX 6 12 0 0
BITMAP
30
30
CC
CC
00
00
CC
CC
CC
CC
FC
FC
ENDCHAR
STARTCHAR 00FC
ENCODING 252
SWIDTH 480 0
DWIDTH 8 0
BBX 6 10 0 0
BITMAP
CC
CC
00
00
CC
CC
CC
CC
FC
FC
ENDCHAR
STARTCHAR 00FD
ENCODING 253
SWIDTH 480 0
DWIDTH 8 0
BBX 6 14 0 -4
BITMAP
3C
3C
00
00
CC
CC
CC
CC
FC
FC
0C
0C
F0
F0
ENDCHAR
STARTCHAR 00FE
ENCODING 254
SWIDTH 480 0
DWIDTH 8 0
BBX 6 10 0 0
BITMAP
C0
C0
F0
F0
CC
CC
F0
F0
C0
C0
ENDCHAR
STARTCHAR 00FF
ENCODING 255
SWIDTH 480 0
DWIDTH 8 0
BBX 6 14 0 -4
BITMAP
CC
CC
00
00
CC
CC
CC
CC
FC
FC
0C
0C
F0
F0
ENDCHAR
STARTCHAR 0178
ENCODING 376
SWIDTH 720 0
DWIDTH 12 0
BBX 10 14 0 0
BITMAP
3300
3300
0000
0000
F3C0
F3C0
F3C0
F3C0
F3C0
F3C0
3F00
3F00
3F00
3F00
ENDCHAR
STARTCHAR 1E9E
ENCODING 7838
SWIDTH 600 0
DWIDTH 10 0
BBX 8 10 0 0
BITMAP
FC
FC
C3
C3
CF
CF
C3
C3
CC
CC
ENDCHAR
STARTCHAR 2014
ENCODING 8212
SWIDTH 720 0
DWIDTH 12 0
BBX 10 2 0 4
BITMAP
FFC0
FFC0
ENDCHAR
STARTCHAR 2018
ENCODING 8216
SWIDTH 240 0
DWIDTH 4 0
BBX 2 4 0 6
BITMAP
C0
C0
C0
C0
ENDCHAR
STARTCHAR 2019
ENCODING 8217
SWIDTH 240 0
DWIDTH 4 0
BBX 2 4 0 6
BITMAP
C0
C0
C0
C0
ENDCHAR
STARTCHAR 201A
ENCODING 8218
SWIDTH 240 0
DWIDTH 4 0
BBX 2 4 0 0
BITMAP
C0
C0
C0
C0
ENDCHAR
STARTCHAR 201B
ENCODING 8219
SWIDTH 240 0
DWIDTH 4 0
BBX 2 4 0 6
BITMAP
C0
C0
C0
C0
ENDCHAR
STARTCHAR 201C
ENCODING 8220
SWIDTH 480 0
DWIDTH 8 0
BBX 6 4 0 6
BITMAP
CC
CC
CC
CC
ENDCHAR
STARTCHAR 201D
ENCODING 8221
SWIDTH 480 0
DWIDTH 8 0
BBX 6 4 0 6
BITMAP
CC
CC
CC
CC
ENDCHAR
STARTCHAR 201E
ENCODING 8222
SWIDTH 480 0
DWIDTH 8 0
BBX 6 4 0 0
BITMAP
CC
CC
CC
CC
ENDCHAR
STARTCHAR 2020
ENCODING 8224
SWIDTH 480 0
DWIDTH 8 0
BBX 6 8 0 0
BITMAP
30
30
FC
FC
30
30
30
30
ENDCHAR
STARTCHAR 2022
ENCODING 8226
SWIDTH 480 0
DWIDTH 8 0
BBX 4 4 2 2
BITMAP
F0
F0
F0
F0
ENDCHAR
STARTCHAR 2026
ENCODING 8230
SWIDTH 720 0
DWIDTH 12 0
BBX 10 2 0 0
BITMAP
CCC0
CCC0
ENDCHAR
STARTCHAR 2039
ENCODING 8249
SWIDTH 360 0
DWIDTH 6 0
BBX 4 6 0 0
BITMAP
30
30
C0
C0
30
30
ENDCHAR
STARTCHAR 203A
ENCODING 8250
SWIDTH 360 0
DWIDTH 6 0
BBX 4 6 0 0
BITMAP
C0
C0
30
30
C0
C0
ENDCHAR
STARTCHAR 20AC
ENCODING 8364
SWIDTH 720 0
DWIDTH 12 0
BBX 10 10 0 0
BITMAP
0F00
0F00
F0C0
F0C0
3C00
3C00
F0C0
F0C0
0F00
0F00
ENDCHAR
STARTCHAR 2122
ENCODING 8482
SWIDTH 900 0
DWIDTH 15 0
BBX 12 4 0 8
BITMAP
FCC0
FCC0
3330
3330
ENDCHAR
STARTCHAR FB00
ENCODING 64256
SWIDTH 600 0
DWIDTH 10 0
BBX 8 12 0 -2
BITMAP
33
33
CC
CC
CC
CC
FF
FF
CC
CC
CC
CC
ENDCHAR
STARTCHAR FB01
ENCODING 64257
SWIDTH 480 0
DWIDTH 8 0
BBX 6 12 0 -2
BITMAP
30
30
CC
CC
C0
C0
FC
FC
CC
CC
C0
C0
ENDCHAR
STARTCHAR FB02
ENCODING 64258
SWIDTH 600 0
DWIDTH 10 0
BBX 8 12 0 -2
BITMAP
3C
3C
CC
CC
CC
CC
FC
FC
CF
CF
C0
C0
ENDCHAR
STARTCHAR FB03
ENCODING 64259
SWIDTH 720 0
DWIDTH 12 0
BBX 10 12 0 -2
BITMAP
3300
3300
CCC0
CCC0
CC00
CC00
FFC0
FFC0
CCC0
CCC0
CC00
CC00
ENDCHAR
STARTCHAR FB04
ENCODING 64260
SWIDTH 840 0
DWIDTH 14 0
BBX 12 12 0 -2
BITMAP
33C0
33C0
CCC0
CCC0
CCC0
CCC0
FFC0
FFC0
CCF0
CCF0
CC00
CC00
ENDCHAR
STARTCHAR FB06
ENCODING 64262
SWIDTH 780 0
DWIDTH 13 0
BBX 11 10 0 0
BITMAP
0300
0300
FFE0
FFE0
C300
C300
3300
3300
F300
F300
ENDCHAR
ENDFONT
